<svg xmlns="http://www.w3.org/2000/svg" viewBox="0 0 1152 648"><defs><style>.cls-1{fill:#d36288;}.cls-1,.cls-2{stroke:#000;stroke-miterlimit:10;}</style></defs><title>yesterdayEndBirth</title><g id="Layer_2" data-name="Layer 2"><rect class="cls-1" x="-41.16" y="-35.34" width="1227.75" height="703.47"/></g><g id="Layer_1" data-name="Layer 1"><polygon class="cls-2" points="255.82 541.56 266.21 549.99 318.99 502.88 333.6 466.89 323.21 458.47 311.77 498.67 255.82 541.56"/><polygon class="cls-2" points="289.4 447.9 282.73 446.21 285.59 398.04 307.85 347.24 322.47 350.94 295.9 397.29 289.4 447.9"/><polygon class="cls-2" points="356.66 571.13 370.01 572.05 386.1 503.16 377.36 465.32 364.02 464.4 377.77 503.87 356.66 571.13"/><circle class="cls-2" cx="345.8" cy="298.73" r="36.09"/><rect class="cls-2" x="330.3" y="348.04" width="31" height="103.14"/><polygon class="cls-2" points="421.76 431.86 416.11 434.75 388.21 398.63 372.04 348.71 384.41 342.37 394.85 391.75 421.76 431.86"/></g></svg>