<svg xmlns="http://www.w3.org/2000/svg" viewBox="0 0 1152 648"><defs><style>.cls-1{stroke:#000;stroke-miterlimit:10;}</style></defs><title>yesterday</title><g id="Layer_1" data-name="Layer 1"><polygon class="cls-1" points="255.82 552.56 266.21 560.98 318.99 513.87 333.6 477.89 323.21 469.46 311.77 509.66 255.82 552.56"/><polygon class="cls-1" points="289.4 458.89 282.73 457.2 285.59 409.04 307.85 358.23 322.47 361.94 295.9 408.28 289.4 458.89"/><polygon class="cls-1" points="356.66 582.13 370.01 583.05 386.1 514.15 377.36 476.31 364.02 475.39 377.77 514.87 356.66 582.13"/><circle class="cls-1" cx="345.8" cy="309.72" r="36.09"/><rect class="cls-1" x="330.3" y="359.03" width="31" height="103.14"/><polygon class="cls-1" points="727.59 401.56 709.47 410.84 631.08 316.68 592.06 181.6 631.77 161.26 653.16 296.12 727.59 401.56"/></g></svg>